# xmcd CD database file
#
# Track frame offsets:
#	150
#	17612
#	38842
#
# Disc length: 753 seconds
#
# Revision: 3
# Processed by: cddbd v1.4PL0 Copyright (c) Steve Scherf et al.
# Submitted via: CDex 1.40Release
#
DISCID=1802ef03
DTITLE=Him - Poison Girl
DYEAR=2000
DGENRE=
TTITLE0=Poison Girl
TTITLE1=Right here in my arms (Live)
TTITLE2=It's all tears (Live)
EXTD=YEAR: 2000
EXTT0=
EXTT1=
EXTT2=
PLAYORDER=
